# xmcd
#
# Track frame offsets: 
#        182
#        16490
#        33757
#        46790
#        61530
#        75330
#        88360
#        100870
#        112112
#        123945
#        140157
#        153885
#        169555
#        183545
#        198652
#        212440
#        228562
#
# Disc length: 3245 seconds
#
# Revision: 1
# Processed by: cddbd v1.5.2PL0 Copyright (c) Steve Scherf et al.
# Submitted via: ExactAudioCopy v0.95b4
#
DISCID=d90cab11
DTITLE=Tracy Lawrence - Anthology
DYEAR=1996
DGENRE=Country
TTITLE0=Sticks and Stones
TTITLE1=Today's Lonely Fool
TTITLE2=Runnin' Behind
TTITLE3=Somebody Paints The Wall
TTITLE4=Alibis
TTITLE5=Can't Break It To My Heart
TTITLE6=My Second Home
TTITLE7=If The Good Die Young
TTITLE8=Renegades, Rebels and Rogues
TTITLE9=I See It Now
TTITLE10=As Any Fool Can See
TTITLE11=Texas Tornado
TTITLE12=If The World Had A Front Porch
TTITLE13=If You Loved Me
TTITLE14=Time Marches On
TTITLE15=Stars Over Texas
TTITLE16=Is That A Tear
EXTD=ID3G: 2
EXTT0=
EXTT1=
EXTT2=
EXTT3=
EXTT4=
EXTT5=
EXTT6=
EXTT7=
EXTT8=
EXTT9=
EXTT10=
EXTT11=
EXTT12=
EXTT13=
EXTT14=
EXTT15=
EXTT16=
PLAYORDER=
